<svg width="91" height="21" viewBox="0 0 91 21" fill="none" xmlns="http://www.w3.org/2000/svg">
<path d="M14.488 15.232C14.2107 15.4667 13.848 15.6587 13.4 15.808C12.9733 15.936 12.472 16 11.896 16C11.128 16 10.488 15.904 9.976 15.712C9.48533 15.52 9.16533 15.1893 9.016 14.72C8.41867 12.8427 7.928 11.328 7.544 10.176C7.16 9.00267 6.86133 7.97867 6.648 7.104H6.488C6.424 8.36267 6.37067 9.51467 6.328 10.56C6.30667 11.584 6.28533 12.5867 6.264 13.568C6.264 14.5493 6.24267 15.5413 6.2 16.544C6.17867 17.5467 6.136 18.656 6.072 19.872C5.79467 19.9787 5.432 20.064 4.984 20.128C4.536 20.2133 4.088 20.256 3.64 20.256C2.70133 20.256 1.96533 20.1067 1.432 19.808C0.92 19.5093 0.664 18.9653 0.664 18.176L1.592 1.856C1.76267 1.57867 2.136 1.28 2.712 0.959999C3.288 0.639999 4.09867 0.48 5.144 0.48C6.27467 0.48 7.16 0.661332 7.8 1.024C8.44 1.36533 8.90933 1.93067 9.208 2.72C9.4 3.232 9.60267 3.81867 9.816 4.48C10.0507 5.14133 10.2747 5.824 10.488 6.528C10.7227 7.232 10.9467 7.936 11.16 8.64C11.3733 9.32267 11.5653 9.94133 11.736 10.496H11.896C12.408 8.704 12.92 6.976 13.432 5.312C13.944 3.62667 14.4133 2.21867 14.84 1.088C15.16 0.917332 15.5653 0.778666 16.056 0.671999C16.568 0.543999 17.1333 0.48 17.752 0.48C18.7973 0.48 19.6507 0.639999 20.312 0.959999C20.9733 1.25867 21.3573 1.696 21.464 2.272C21.5493 2.69867 21.6347 3.36 21.72 4.256C21.8267 5.13067 21.9333 6.12267 22.04 7.232C22.1467 8.34133 22.2533 9.51467 22.36 10.752C22.4667 11.9893 22.5627 13.184 22.648 14.336C22.7547 15.4667 22.84 16.512 22.904 17.472C22.968 18.4107 23.0107 19.136 23.032 19.648C22.6693 19.8613 22.2853 20.0107 21.88 20.096C21.496 20.2027 20.9947 20.256 20.376 20.256C19.5653 20.256 18.8827 20.1173 18.328 19.84C17.7733 19.5627 17.4747 19.0187 17.432 18.208C17.304 15.8827 17.2187 13.792 17.176 11.936C17.1547 10.08 17.112 8.52267 17.048 7.264H16.888C16.6747 8.096 16.3653 9.14133 15.96 10.4C15.5547 11.6587 15.064 13.2693 14.488 15.232ZM34.263 20.512C33.0043 20.512 31.831 20.3413 30.743 20C29.6763 19.6373 28.7377 19.104 27.927 18.4C27.1377 17.696 26.5083 16.8107 26.039 15.744C25.591 14.6773 25.367 13.4293 25.367 12C25.367 10.592 25.591 9.38667 26.039 8.384C26.5083 7.36 27.1163 6.528 27.863 5.888C28.6097 5.22667 29.463 4.74667 30.423 4.448C31.383 4.128 32.3643 3.968 33.367 3.968C34.4977 3.968 35.5217 4.13867 36.439 4.48C37.3777 4.82133 38.1777 5.29067 38.839 5.888C39.5217 6.48533 40.0443 7.2 40.407 8.032C40.791 8.864 40.983 9.77067 40.983 10.752C40.983 11.4773 40.7803 12.032 40.375 12.416C39.9697 12.8 39.4043 13.0453 38.679 13.152L30.775 14.336C31.0097 15.04 31.4897 15.5733 32.215 15.936C32.9403 16.2773 33.7723 16.448 34.711 16.448C35.5857 16.448 36.407 16.3413 37.175 16.128C37.9643 15.8933 38.6043 15.6267 39.095 15.328C39.4363 15.5413 39.7243 15.84 39.959 16.224C40.1937 16.608 40.311 17.0133 40.311 17.44C40.311 18.4 39.863 19.1147 38.967 19.584C38.2843 19.9467 37.5163 20.192 36.663 20.32C35.8097 20.448 35.0097 20.512 34.263 20.512ZM33.367 7.936C32.855 7.936 32.407 8.02133 32.023 8.192C31.6603 8.36267 31.3617 8.58667 31.127 8.864C30.8923 9.12 30.711 9.41867 30.583 9.76C30.4763 10.08 30.4123 10.4107 30.391 10.752L35.863 9.856C35.799 9.42933 35.5643 9.00267 35.159 8.576C34.7537 8.14933 34.1563 7.936 33.367 7.936ZM53.4575 10.144C53.4575 9.48267 53.2655 9.00267 52.8815 8.704C52.5188 8.384 52.0175 8.224 51.3775 8.224C50.9508 8.224 50.5242 8.27733 50.0975 8.384C49.6922 8.49067 49.3402 8.65067 49.0415 8.864V19.968C48.8282 20.032 48.4868 20.096 48.0175 20.16C47.5695 20.224 47.1002 20.256 46.6095 20.256C46.1402 20.256 45.7135 20.224 45.3295 20.16C44.9668 20.096 44.6575 19.968 44.4015 19.776C44.1455 19.584 43.9428 19.328 43.7935 19.008C43.6655 18.6667 43.6015 18.2293 43.6015 17.696V8.096C43.6015 7.52 43.7188 7.05067 43.9535 6.688C44.2095 6.32533 44.5508 5.99467 44.9775 5.696C45.7028 5.184 46.6095 4.768 47.6975 4.448C48.8068 4.128 50.0335 3.968 51.3775 3.968C53.7882 3.968 55.6442 4.50133 56.9455 5.568C58.2468 6.61333 58.8975 8.07467 58.8975 9.952V19.968C58.6842 20.032 58.3428 20.096 57.8735 20.16C57.4255 20.224 56.9562 20.256 56.4655 20.256C55.9962 20.256 55.5695 20.224 55.1855 20.16C54.8228 20.096 54.5135 19.968 54.2575 19.776C54.0015 19.584 53.7988 19.328 53.6495 19.008C53.5215 18.6667 53.4575 18.2293 53.4575 17.696V10.144ZM67.6978 14.656C67.6978 15.2107 67.8684 15.6053 68.2098 15.84C68.5724 16.0747 69.0738 16.192 69.7138 16.192C70.0338 16.192 70.3644 16.1707 70.7058 16.128C71.0471 16.064 71.3458 15.9893 71.6018 15.904C71.7938 16.1387 71.9538 16.4053 72.0818 16.704C72.2311 16.9813 72.3058 17.3227 72.3058 17.728C72.3058 18.5387 71.9964 19.2 71.3778 19.712C70.7804 20.224 69.7138 20.48 68.1778 20.48C66.3004 20.48 64.8498 20.0533 63.8258 19.2C62.8231 18.3467 62.3218 16.96 62.3218 15.04V1.344C62.5564 1.28 62.8871 1.216 63.3138 1.152C63.7618 1.06667 64.2311 1.024 64.7218 1.024C65.6604 1.024 66.3858 1.19467 66.8978 1.536C67.4311 1.856 67.6978 2.54933 67.6978 3.616V5.664H71.8898C72.0178 5.89867 72.1351 6.19733 72.2418 6.56C72.3698 6.90133 72.4338 7.28533 72.4338 7.712C72.4338 8.45867 72.2631 9.00267 71.9218 9.344C71.6018 9.664 71.1644 9.824 70.6098 9.824H67.6978V14.656ZM90.9788 12.224C90.9788 13.5467 90.7761 14.7307 90.3708 15.776C89.9654 16.8 89.3894 17.664 88.6428 18.368C87.9174 19.072 87.0428 19.6053 86.0188 19.968C84.9948 20.3307 83.8534 20.512 82.5948 20.512C81.3361 20.512 80.1948 20.32 79.1708 19.936C78.1468 19.552 77.2614 19.008 76.5148 18.304C75.7894 17.5787 75.2241 16.704 74.8188 15.68C74.4134 14.656 74.2108 13.504 74.2108 12.224C74.2108 10.9653 74.4134 9.824 74.8188 8.8C75.2241 7.776 75.7894 6.912 76.5148 6.208C77.2614 5.48267 78.1468 4.928 79.1708 4.544C80.1948 4.16 81.3361 3.968 82.5948 3.968C83.8534 3.968 84.9948 4.17067 86.0188 4.576C87.0428 4.96 87.9174 5.51467 88.6428 6.24C89.3894 6.944 89.9654 7.808 90.3708 8.832C90.7761 9.856 90.9788 10.9867 90.9788 12.224ZM79.7788 12.224C79.7788 13.5253 80.0241 14.528 80.5148 15.232C81.0268 15.9147 81.7308 16.256 82.6267 16.256C83.5228 16.256 84.2054 15.904 84.6748 15.2C85.1654 14.496 85.4108 13.504 85.4108 12.224C85.4108 10.944 85.1654 9.96267 84.6748 9.28C84.1841 8.576 83.4908 8.224 82.5948 8.224C81.6988 8.224 81.0054 8.576 80.5148 9.28C80.0241 9.96267 79.7788 10.944 79.7788 12.224Z" fill="white"/>
</svg>
